# xmcd
#
# Track frame offsets: 
#        150
#        21522
#        41530
#        59235
#        74377
#        92717
#        107990
#
# Disc length: 1561 seconds
#
# Revision: 3
# Processed by: cddbd v1.4PL0 Copyright (c) Steve Scherf et al.
# Submitted via: ExactAudioCopy v0.90b3
#
DISCID=67061707
DTITLE=Hank Williams, Jr. - Almeria Club
DYEAR=2001
DGENRE=Country
TTITLE0=If The Good Lords Willin' (And The Creeks Don't Rise)
TTITLE1=Last Pork Chop
TTITLE2=Tee Tot Song
TTITLE3=Go Girl Go
TTITLE4=Outdoor Lovin' Man (With Nickel Creek)
TTITLE5=Last Pork Chop
TTITLE6=Almeria Jam
EXTD=
EXTT0=
EXTT1=Acoustic
EXTT2=
EXTT3=
EXTT4=with Nickel Creek
EXTT5=
EXTT6=
PLAYORDER=
